<?xml version="1.0" encoding="UTF-8" standalone="no"?>
<!-- Created with Inkscape (http://www.inkscape.org/) -->

<svg
   width="297mm"
   height="297mm"
   viewBox="0 0 297 297"
   version="1.1"
   id="svg1796"
   inkscape:version="1.2.1 (9c6d41e410, 2022-07-14)"
   xmlns:inkscape="http://www.inkscape.org/namespaces/inkscape"
   xmlns:sodipodi="http://sodipodi.sourceforge.net/DTD/sodipodi-0.dtd"
   xmlns="http://www.w3.org/2000/svg"
   xmlns:svg="http://www.w3.org/2000/svg">
  <sodipodi:namedview
     id="namedview1798"
     pagecolor="#ffffff"
     bordercolor="#000000"
     borderopacity="0.25"
     inkscape:showpageshadow="2"
     inkscape:pageopacity="0.0"
     inkscape:pagecheckerboard="0"
     inkscape:deskcolor="#d1d1d1"
     inkscape:document-units="mm"
     showgrid="false"
     showguides="false"
     inkscape:zoom="0.52724989"
     inkscape:cx="446.65728"
     inkscape:cy="653.39037"
     inkscape:window-width="1350"
     inkscape:window-height="1040"
     inkscape:window-x="351"
     inkscape:window-y="45"
     inkscape:window-maximized="0"
     inkscape:current-layer="layer1" />
  <defs
     id="defs1793" />
  <g
     inkscape:label="Layer 1"
     inkscape:groupmode="layer"
     id="layer1">
    <path
       d="m 16.41316,123.33772 c 1.131891,-3.23788 4.67757,-4.95032 7.917386,-3.82038 3.241763,1.128 4.952263,4.67369 3.820372,7.91349 l -4.745754,13.58465 25.258097,-20.06038 c 2.69238,-2.13715 6.608213,-1.68712 8.747309,1.00137 2.137149,2.68849 1.691016,6.60432 -0.999414,8.74147 l -25.889309,20.56299 8.511581,11.07343 c 17.379676,-13.55931 34.62103,-27.18289 51.909142,-40.85131 4.504182,-3.5632 11.65591,1.53324 9.74282,6.96669 l -8.690802,24.66779 c 13.578762,-10.59223 27.385482,-20.97795 40.864922,-31.63448 4.50418,-3.5632 11.65399,1.53324 9.74282,6.96669 l -8.69081,24.66779 c 13.43268,-10.47923 26.73481,-21.06756 40.10125,-31.63448 4.50418,-3.5632 11.65594,1.53324 9.74283,6.96669 l -8.68887,24.66779 c 13.27682,-10.36039 26.06659,-21.14354 39.33755,-31.63448 4.50224,-3.5632 11.65398,1.53324 9.74282,6.96669 l -8.6908,24.66779 c 13.57878,-10.59223 27.38551,-20.97795 40.86296,-31.63448 4.50419,-3.5632 11.65594,1.53324 9.74479,6.96669 l -8.6908,24.66779 29.47588,-22.9982 c 2.70408,-2.10988 6.61212,-1.62867 8.72198,1.07538 2.10988,2.70212 1.63062,6.60823 -1.07345,8.71614 l -46.23018,36.06852 c -4.51977,3.52814 -11.5936,-1.57021 -9.69415,-6.96666 l 8.58562,-24.36974 c -13.38395,10.58249 -27.27249,20.7773 -40.80647,31.3364 -4.51976,3.52814 -11.59359,-1.57021 -9.69412,-6.96666 l 8.25053,-23.42097 -38.94794,30.38763 c -4.51975,3.52814 -11.59359,-1.57021 -9.69411,-6.96666 l 8.5408,-24.24117 -39.99994,31.20783 c -4.51978,3.52814 -11.5936,-1.57021 -9.69412,-6.96666 l 8.5856,-24.36974 c -13.38397,10.58249 -27.272503,20.7773 -40.808415,31.3364 -4.517823,3.52814 -11.5936,-1.57021 -9.694128,-6.96666 l 8.538852,-24.23726 -39.994098,31.20392 c -2.468338,1.92675 -6.838096,1.38516 -8.743412,-1.09682 L 18.269774,155.72031 12.185619,173.1292 c -1.129941,3.23982 -4.679518,4.95226 -7.9193344,3.82232 -3.2398156,-1.12799 -4.9503136,-4.67368 -3.82037167,-7.91349 z"
       style="fill:#1a1a18;fill-opacity:1;fill-rule:evenodd;stroke:none;stroke-width:1.94818"
       id="path223"
       sodipodi:nodetypes="ccccccccccccccccccccccccccccccccccccccccccccccccc" />
  </g>
</svg>
